<svg id="SvgjsSvg1034" width="288" height="288" xmlns="http://www.w3.org/2000/svg" version="1.1" xmlns:xlink="http://www.w3.org/1999/xlink" xmlns:svgjs="http://svgjs.com/svgjs"><circle id="SvgjsCircle1052" r="144" cx="144" cy="144" transform="matrix(1,0,0,1,0,0)" fill="#00b2e4"></circle><defs id="SvgjsDefs1035"></defs><g id="SvgjsG1036" transform="matrix(0.64,0,0,0.64,51.83999382019043,51.83238098144531)"><svg xmlns="http://www.w3.org/2000/svg" viewBox="0 0 24 24" width="288" height="288"><g data-name="Layer 2" fill="#ffffff" class="color000 svgShape"><path d="M18.11,22.67H5.89a4.56,4.56,0,0,1-4.08-6.6L7.92,3.85a4.56,4.56,0,0,1,8.16,0l6.11,12.22a4.56,4.56,0,0,1-4.08,6.6ZM12,3.33A2.51,2.51,0,0,0,9.71,4.75L3.6,17a2.56,2.56,0,0,0,2.29,3.71H18.11A2.57,2.57,0,0,0,20.4,17L14.29,4.75A2.51,2.51,0,0,0,12,3.33Z" fill="#ffffff" class="color000 svgShape"></path><rect width="2" height="19.78" x="12.34" y="3.39" transform="rotate(-28.09 13.35 13.279)" fill="#ffffff" class="color000 svgShape"></rect><rect width="13.56" height="2" x="2.07" y="15" transform="rotate(-62.25 8.848 15.998)" fill="#ffffff" class="color000 svgShape"></rect><rect width="7.36" height="2" x="8.15" y="15.33" fill="#ffffff" class="color000 svgShape"></rect></g></svg></g></svg>